<svg width="26" height="18" viewBox="0 0 26 18" fill="none" xmlns="http://www.w3.org/2000/svg">
<path d="M25.654 8.1908L17.3812 0.315801C17.1583 0.110873 16.8597 -0.00252069 16.5499 4.25278e-05C16.24 0.00260575 15.9436 0.120921 15.7245 0.329505C15.5053 0.538089 15.381 0.820253 15.3784 1.11522C15.3757 1.4102 15.4948 1.69437 15.7101 1.90655L21.9655 7.86118H1.18183C0.868389 7.86118 0.567786 7.9797 0.34615 8.19068C0.124514 8.40166 0 8.68781 0 8.98618C0 9.28454 0.124514 9.57069 0.34615 9.78167C0.567786 9.99265 0.868389 10.1112 1.18183 10.1112H21.9655L15.7101 16.0658C15.5972 16.1696 15.5072 16.2937 15.4452 16.431C15.3833 16.5682 15.3507 16.7158 15.3493 16.8652C15.3479 17.0146 15.3778 17.1627 15.4373 17.301C15.4967 17.4393 15.5844 17.5649 15.6954 17.6705C15.8064 17.7761 15.9383 17.8597 16.0836 17.9162C16.2288 17.9728 16.3844 18.0013 16.5414 18C16.6983 17.9987 16.8534 17.9676 16.9976 17.9087C17.1417 17.8497 17.2721 17.764 17.3812 17.6566L25.654 9.78155C25.8755 9.57058 26 9.28449 26 8.98618C26 8.68787 25.8755 8.40177 25.654 8.1908Z" fill="white"/>
</svg>
