<svg width="162" height="98" viewBox="0 0 162 98" fill="none" xmlns="http://www.w3.org/2000/svg">
<g clip-path="url(#clip0_0_508)">
<path d="M81.1811 32.3852C74.8135 33.4737 69.5102 37.0831 66.1193 42.0143L61.5985 48.5873L68.5703 53.6658L73.2246 46.8972C75.345 43.8143 78.6606 41.5542 82.6333 40.8752C90.4373 39.5414 97.8738 44.8046 99.2083 52.6078C100.543 60.4093 95.2779 67.8434 87.4739 69.1775C83.5012 69.8563 79.6226 68.8262 76.598 66.6207C50.5169 47.6164 47.2927 45.2672 47.2539 45.2389C42.4166 41.714 36.2149 40.071 29.8473 41.1595C17.3404 43.2972 8.9338 55.1677 11.0726 67.6726C13.211 80.1757 25.0851 88.5796 37.592 86.4418C43.9599 85.3533 49.263 81.7439 52.6542 76.8127L57.1747 70.2395L50.2028 65.1612L45.5483 71.9279C43.4285 75.0127 40.1126 77.2728 36.1401 77.9516C28.3362 79.2856 20.8996 74.0224 19.5653 66.2209C18.2307 58.4177 23.4955 50.9833 31.2995 49.6495C35.2723 48.9704 39.1506 50.0008 42.1751 52.2044C43.3183 53.0374 71.2451 73.3882 71.5193 73.5881C76.3568 77.1127 82.5583 78.7558 88.9261 77.6675C101.433 75.5298 109.84 63.6593 107.701 51.1563C105.562 38.6513 93.6881 30.2474 81.1811 32.3852Z" fill="white" fill-opacity="0.4"/>
<path d="M81.1811 32.3852C74.8135 33.4737 69.5102 37.0831 66.1193 42.0143L61.5985 48.5873L68.5703 53.6658L73.2246 46.8972C75.345 43.8143 78.6606 41.5542 82.6333 40.8752C90.4373 39.5414 97.8738 44.8046 99.2083 52.6078C100.543 60.4093 95.2779 67.8434 87.4739 69.1775C83.5012 69.8563 79.6226 68.8262 76.598 66.6207C50.5169 47.6164 47.2927 45.2672 47.2539 45.2389C42.4166 41.714 36.2149 40.071 29.8473 41.1595C17.3404 43.2972 8.9338 55.1677 11.0726 67.6726C13.211 80.1757 25.0851 88.5796 37.592 86.4418C43.9599 85.3533 49.263 81.7439 52.6542 76.8127L57.1747 70.2395L50.2028 65.1612L45.5483 71.9279C43.4285 75.0127 40.1126 77.2728 36.1401 77.9516C28.3362 79.2856 20.8996 74.0224 19.5653 66.2209C18.2307 58.4177 23.4955 50.9833 31.2995 49.6495C35.2723 48.9704 39.1506 50.0008 42.1751 52.2044C43.3183 53.0374 71.2451 73.3882 71.5193 73.5881C76.3568 77.1127 82.5583 78.7558 88.9261 77.6675C101.433 75.5298 109.84 63.6593 107.701 51.1563C105.562 38.6513 93.6881 30.2474 81.1811 32.3852Z" fill="url(#paint0_linear_0_508)"/>
<g filter="url(#filter0_d_0_508)">
<path d="M32.3723 53.7063V67.2712H34.6985V58.6672L42.1615 67.2712H44.6815V53.7063H42.3554V61.7871L35.28 53.7063H32.3723ZM58.4327 62.601V59.3066H49.9229V57.0006H58.8204V53.7063H47.5967V67.2712H49.9229V62.601H58.4327ZM71.6134 57.1944V53.7063H59.7888V57.1944H64.3248V67.2712H67.058V57.1944H71.6134ZM87.3379 67.2518V63.9575H83.9262V57.0006H87.3379V53.7063H78.5955V57.0006H81.9878V63.9575H78.5955V67.2518H81.9878V67.2712H83.9262V67.2518H87.3379ZM89.0867 56.4193V67.2712H91.4129V63.2793C91.4129 61.3608 92.6341 59.8299 94.7664 59.8299C97.0926 59.8299 98.4689 60.4694 98.4689 63.2211V67.2712H100.795V61.3608C100.795 58.2602 99.1861 56.1286 95.5612 56.1286C93.8166 56.1286 92.0526 56.8068 91.5098 58.5509H91.4129L91.1221 56.4193H89.0867ZM107.48 67.6007V59.4229H111.357V67.2712H113.683V56.4193H107.558C107.771 55.4309 108.353 54.9659 109.535 54.9659C110.95 54.9659 111.958 55.5085 112.501 55.8379L112.908 52.4079C112.268 51.9234 111.202 51.594 109.729 51.594C106.356 51.594 105.154 53.2993 105.154 56.4193C104.747 56.4193 100.928 56.4193 102.343 56.4193V59.4229H105.154V67.5619L107.48 67.6007ZM115.617 56.4193V67.2712H117.943V63.2793C117.943 61.3608 119.164 59.8299 121.297 59.8299C123.623 59.8299 124.999 60.4694 124.999 63.2211V67.2712H127.325V61.3608C127.325 58.2602 125.716 56.1286 122.092 56.1286C120.347 56.1286 118.583 56.8068 118.04 58.5509H117.943L117.652 56.4193H115.617ZM129.067 54.0163C129.067 54.9465 129.804 55.5666 131.025 55.5666C132.227 55.5666 132.944 54.9465 132.944 54.0163C132.944 53.0668 132.266 52.4079 131.064 52.4079C129.843 52.4079 129.067 53.0668 129.067 54.0163ZM129.92 56.4193V67.2712H132.247V56.4193H129.92ZM136.855 53.7063V56.4193H134.529L134.122 59.4229H136.855V63.4149C136.913 66.2054 138.348 67.6007 141.449 67.6007C143.097 67.6007 144.027 67.1162 144.725 66.8449L144.842 63.3374C144.299 63.6668 142.884 64.3451 141.566 64.3451C140.112 64.3451 139.181 63.9187 139.181 61.5158V59.4229H144.415V56.4193H139.181V53.7063H136.855ZM151.175 72.5034C154.335 72.5034 157.921 71.2438 157.921 66.3217V56.4193H155.595V60.4112C155.595 62.3297 154.374 63.8606 152.242 63.8606C149.915 63.8606 148.539 63.2211 148.539 60.4694V56.4193H146.213V62.3297C146.213 65.4303 147.822 67.5619 151.447 67.5619C153.191 67.5619 154.955 66.8837 155.498 65.1396H155.595V65.5465C155.595 68.3952 153.831 69.2091 151.175 69.2091C149.276 69.2091 147.492 68.4727 146.639 67.8332L146.329 71.3601C146.911 71.7477 149.334 72.5034 151.175 72.5034Z" fill="white"/>
</g>
</g>
<defs>
<filter id="filter0_d_0_508" x="18.3723" y="41.594" width="153.549" height="48.9094" filterUnits="userSpaceOnUse" color-interpolation-filters="sRGB">
<feFlood flood-opacity="0" result="BackgroundImageFix"/>
<feColorMatrix in="SourceAlpha" type="matrix" values="0 0 0 0 0 0 0 0 0 0 0 0 0 0 0 0 0 0 127 0" result="hardAlpha"/>
<feOffset dy="4"/>
<feGaussianBlur stdDeviation="7"/>
<feComposite in2="hardAlpha" operator="out"/>
<feColorMatrix type="matrix" values="0 0 0 0 0 0 0 0 0 0 0 0 0 0 0 0 0 0 0.3 0"/>
<feBlend mode="normal" in2="BackgroundImageFix" result="effect1_dropShadow_0_508"/>
<feBlend mode="normal" in="SourceGraphic" in2="effect1_dropShadow_0_508" result="shape"/>
</filter>
<linearGradient id="paint0_linear_0_508" x1="38.5728" y1="-132.993" x2="104.41" y2="82.8214" gradientUnits="userSpaceOnUse">
<stop stop-color="white"/>
<stop offset="1" stop-color="#EA721C"/>
</linearGradient>
<clipPath id="clip0_0_508">
<rect width="162" height="98" fill="white"/>
</clipPath>
</defs>
</svg>
