<svg width="182" height="155" viewBox="0 0 182 155" fill="none" xmlns="http://www.w3.org/2000/svg">
<path d="M37.8906 9.86983C31.4476 4.46619 21.8441 5.30873 16.4405 11.7517V11.7517C11.0368 18.1946 11.8793 27.7981 18.3223 33.2018L150.729 144.25C157.172 149.653 166.775 148.811 172.179 142.368V142.368C177.582 135.925 176.74 126.322 170.297 120.918L37.8906 9.86983Z" fill="#75787E"/>
<path d="M12.3399 121.291C5.9007 126.699 5.06474 136.304 10.4728 142.743V142.743C15.8808 149.182 25.4849 150.018 31.9241 144.61L164.255 33.4717C170.694 28.0637 171.53 18.4596 166.122 12.0203V12.0203C160.714 5.58108 151.11 4.74511 144.671 10.1531L12.3399 121.291Z" fill="#75787E"/>
</svg>
