<svg width="25" height="25" viewBox="0 0 25 25" fill="none" xmlns="http://www.w3.org/2000/svg">
<path fill-rule="evenodd" clip-rule="evenodd" d="M16.3374 2.57756C16.9878 2.57756 17.6372 2.6693 18.2546 2.87648C22.0591 4.11339 23.4301 8.28798 22.2849 11.9369C21.6355 13.8015 20.5738 15.5033 19.1833 16.8938C17.1929 18.8213 15.0087 20.5324 12.6576 22.0064L12.3999 22.162L12.1319 21.9961C9.77246 20.5324 7.57591 18.8213 5.56695 16.8835C4.18573 15.493 3.12301 13.8015 2.46332 11.9369C1.29856 8.28798 2.66948 4.11339 6.51525 2.85483C6.81417 2.75176 7.12237 2.6796 7.4316 2.6394H7.55529C7.84493 2.59714 8.13252 2.57756 8.42113 2.57756H8.53451C9.1839 2.59714 9.81266 2.71053 10.4218 2.91771H10.4827C10.5239 2.93729 10.5548 2.95894 10.5754 2.97852C10.8032 3.05171 11.0187 3.13417 11.2248 3.24755L11.6165 3.42278C11.7111 3.47326 11.8174 3.55039 11.9092 3.61705C11.9674 3.65929 12.0197 3.69732 12.0597 3.7217C12.0765 3.73163 12.0936 3.74161 12.1109 3.75167C12.1993 3.80326 12.2913 3.857 12.369 3.91652C13.5141 3.0414 14.9046 2.56725 16.3374 2.57756ZM19.0792 9.99906C19.5019 9.98772 19.8626 9.6486 19.8935 9.21465V9.09199C19.9245 7.64789 19.0493 6.33985 17.7186 5.83478C17.296 5.68944 16.8322 5.91724 16.6776 6.35016C16.5333 6.78308 16.76 7.25723 17.1929 7.41082C17.8537 7.6582 18.2959 8.30861 18.2959 9.02911V9.06107C18.2763 9.29711 18.3474 9.52491 18.4917 9.70014C18.636 9.87537 18.8525 9.97742 19.0792 9.99906Z" fill="#F32D12"/>
<path fill-rule="evenodd" clip-rule="evenodd" d="M16.3374 2.57756C16.9878 2.57756 17.6372 2.6693 18.2546 2.87648C22.0591 4.11339 23.4301 8.28798 22.2849 11.9369C21.6355 13.8015 20.5738 15.5033 19.1833 16.8938C17.1929 18.8213 15.0087 20.5324 12.6576 22.0064L12.3999 22.162L12.1319 21.9961C9.77246 20.5324 7.57591 18.8213 5.56695 16.8835C4.18573 15.493 3.12301 13.8015 2.46332 11.9369C1.29856 8.28798 2.66948 4.11339 6.51525 2.85483C6.81417 2.75176 7.12237 2.6796 7.4316 2.6394H7.55529C7.84493 2.59714 8.13252 2.57756 8.42113 2.57756H8.53451C9.1839 2.59714 9.81266 2.71053 10.4218 2.91771H10.4827C10.5239 2.93729 10.5548 2.95894 10.5754 2.97852C10.8032 3.05171 11.0187 3.13417 11.2248 3.24755L11.6165 3.42278C11.7111 3.47326 11.8174 3.55039 11.9092 3.61705C11.9674 3.65929 12.0197 3.69732 12.0597 3.7217C12.0765 3.73163 12.0936 3.74161 12.1109 3.75167C12.1993 3.80326 12.2913 3.857 12.369 3.91652C13.5141 3.0414 14.9046 2.56725 16.3374 2.57756ZM19.0792 9.99906C19.5019 9.98772 19.8626 9.6486 19.8935 9.21465V9.09199C19.9245 7.64789 19.0493 6.33985 17.7186 5.83478C17.296 5.68944 16.8322 5.91724 16.6776 6.35016C16.5333 6.78308 16.76 7.25723 17.1929 7.41082C17.8537 7.6582 18.2959 8.30861 18.2959 9.02911V9.06107C18.2763 9.29711 18.3474 9.52491 18.4917 9.70014C18.636 9.87537 18.8525 9.97742 19.0792 9.99906Z" fill="#130F26"/>
<path fill-rule="evenodd" clip-rule="evenodd" d="M16.3374 2.57756C16.9878 2.57756 17.6372 2.6693 18.2546 2.87648C22.0591 4.11339 23.4301 8.28798 22.2849 11.9369C21.6355 13.8015 20.5738 15.5033 19.1833 16.8938C17.1929 18.8213 15.0087 20.5324 12.6576 22.0064L12.3999 22.162L12.1319 21.9961C9.77246 20.5324 7.57591 18.8213 5.56695 16.8835C4.18573 15.493 3.12301 13.8015 2.46332 11.9369C1.29856 8.28798 2.66948 4.11339 6.51525 2.85483C6.81417 2.75176 7.12237 2.6796 7.4316 2.6394H7.55529C7.84493 2.59714 8.13252 2.57756 8.42113 2.57756H8.53451C9.1839 2.59714 9.81266 2.71053 10.4218 2.91771H10.4827C10.5239 2.93729 10.5548 2.95894 10.5754 2.97852C10.8032 3.05171 11.0187 3.13417 11.2248 3.24755L11.6165 3.42278C11.7111 3.47326 11.8174 3.55039 11.9092 3.61705C11.9674 3.65929 12.0197 3.69732 12.0597 3.7217C12.0765 3.73163 12.0936 3.74161 12.1109 3.75167C12.1993 3.80326 12.2913 3.857 12.369 3.91652C13.5141 3.0414 14.9046 2.56725 16.3374 2.57756ZM19.0792 9.99906C19.5019 9.98772 19.8626 9.6486 19.8935 9.21465V9.09199C19.9245 7.64789 19.0493 6.33985 17.7186 5.83478C17.296 5.68944 16.8322 5.91724 16.6776 6.35016C16.5333 6.78308 16.76 7.25723 17.1929 7.41082C17.8537 7.6582 18.2959 8.30861 18.2959 9.02911V9.06107C18.2763 9.29711 18.3474 9.52491 18.4917 9.70014C18.636 9.87537 18.8525 9.97742 19.0792 9.99906Z" fill="white" fill-opacity="0.86"/>
</svg>
