<svg width="21" height="21" viewBox="0 0 21 21" fill="none" xmlns="http://www.w3.org/2000/svg">
<path fill-rule="evenodd" clip-rule="evenodd" d="M10.3691 20.6769C4.67934 20.6769 0.0615234 16.0694 0.0615234 10.3693C0.0615234 4.67946 4.67934 0.0616455 10.3691 0.0616455C16.0693 0.0616455 20.6768 4.67946 20.6768 10.3693C20.6768 16.0694 16.0693 20.6769 10.3691 20.6769ZM13.6573 14.1935C13.781 14.2656 13.915 14.3068 14.0593 14.3068C14.317 14.3068 14.5746 14.1728 14.719 13.9255C14.9354 13.5647 14.822 13.0905 14.451 12.8638L10.7814 10.6786V5.91644C10.7814 5.48352 10.431 5.14336 10.0084 5.14336C9.58575 5.14336 9.23529 5.48352 9.23529 5.91644V11.1218C9.23529 11.3898 9.3796 11.6372 9.61668 11.7815L13.6573 14.1935Z" fill="white" fill-opacity="0.86"/>
</svg>
